mastitorrents.com
 
http://mastitorrents.com/forums/index.php

General
Complete name                    : F:\The Spy Next Door 2010 BRRip 720p Dual Audio [Hin-Eng] by imkhan -=[TDT]=-\The Spy Next Door 2010 BRRip 720p Dual Audio [Hin-Eng] by imkhan -=[TDT]=-.mkv
Format                           : Matroska
File size                        : 1.30 GiB
Duration                         : 1h 34mn
Overall bit rate                 : 1 966 Kbps
Movie name                       : The Spy Next Door 2010 BRRip 720p Dual Audio [Hin-Eng] by imkhan -=[TDT]=-
Encoded date                     : UTC 2010-11-28 13:25:57
Writing application              : mkvmerge v4.2.0 ('No Talking') built on Jul 28 2010 18:38:23
Writing library                  : libebml v1.0.0 + libmatroska v1.0.0
Video
ID                               : 1
Format                           : AVC
Format/Info                      : Advanced Video Codec
Format profile                   : High@L3.1
Format settings, CABAC           : Yes
Format settings, ReFrames        : 5 frames
Muxing mode                      : Container profile=Unknown@3.1
Codec ID                         : V_MPEG4/ISO/AVC
Duration                         : 1h 34mn
Bit rate                         : 1 735 Kbps
Width                            : 1 280 pixels
Height                           : 544 pixels
Display aspect ratio             : 2.35:1
Frame rate mode                  : Variable
Frame rate                       : 24.000 fps
Resolution                       : 24 bits
Colorimetry                      : 4:2:0
Scan type                        : Progressive
Bits/(Pixel*Frame)               : 0.104
Stream size                      : 1.14 GiB (88%)
Audio #1
ID                               : 2
Format                           : MPEG Audio
Format version                   : Version 1
Format profile                   : Layer 3
Codec ID                         : A_MPEG/L3
Codec ID/Hint                    : MP3
Duration                         : 1h 34mn
Bit rate mode                    : Constant
Bit rate                         : 128 Kbps
Channel(s)                       : 2 channels
Sampling rate                    : 44.1 KHz
Resolution                       : 16 bits
Stream size                      : 86.4 MiB (7%)
Title                            : imkhan
Writing library                  : LAME3.98.2
Language                         : Hindi
Audio #2
ID                               : 3
Format                           : MPEG Audio
Format version                   : Version 2
Format profile                   : Layer 3
Codec ID                         : A_MPEG/L3
Codec ID/Hint                    : MP3
Duration                         : 1h 34mn
Bit rate mode                    : Constant
Bit rate                         : 64.0 Kbps
Channel(s)                       : 2 channels
Sampling rate                    : 22.05 KHz
Resolution                       : 16 bits
Stream size                      : 43.2 MiB (3%)
Title                            : imkhan
Writing library                  : LAME3.98.2
